{
  "scene": 0,
  "scenes": [
    {
      "nodes": [
        0
      ]
    }
  ],
  "nodes": [
    {
      "name": "Elements",
      "mesh": 0,
      "scale": [
        0.0024937657,
        0.0024937657,
        0.0024937657
      ],
      "translation": [
        -0.5,
        0.0022484113,
        0.10473815
      ]
    }
  ],
  "meshes": [
    {
      "name": "Elements Mesh",
      "primitives": [
        {
          "attributes": {
            "POSITION": 1,
            "NORMAL": 2,
            "TEXCOORD_0": 3
          },
          "indices": 0,
          "material": 0
        }
      ]
    }
  ],
  "materials": [
    {
      "name": "Palette Material",
      "pbrMetallicRoughness": {
        "baseColorFactor": [
          1,
          1,
          1,
          1
        ],
        "baseColorTexture": {
          "index": 0,
          "texCoord": 0
        },
        "metallicFactor": 1,
        "roughnessFactor": 0.30000001
      },
      "doubleSided": true
    },
    {
      "name": "Black Material",
      "pbrMetallicRoughness": {
        "baseColorFactor": [
          0,
          0,
          0,
          1
        ],
        "metallicFactor": 1,
        "roughnessFactor": 1
      },
      "doubleSided": true
    }
  ],
  "textures": [
    {
      "sampler": 0,
      "source": 0
    }
  ],
  "images": [
    {
      "name": "palette",
      "uri": "3.png"
    }
  ],
  "samplers": [
    {
      "magFilter": 9728,
      "minFilter": 9728,
      "wrapS": 33071,
      "wrapT": 33071
    }
  ],
  "buffers": [
    {
      "uri": "3.bin",
      "byteLength": 153920
    }
  ],
  "bufferViews": [
    {
      "buffer": 0,
      "byteOffset": 0,
      "byteLength": 61440,
      "target": 34963
    },
    {
      "buffer": 0,
      "byteOffset": 61440,
      "byteLength": 92480,
      "byteStride": 32,
      "target": 34962
    }
  ],
  "accessors": [
    {
      "bufferView": 0,
      "byteOffset": 0,
      "componentType": 5125,
      "count": 15360,
      "type": "SCALAR"
    },
    {
      "bufferView": 1,
      "byteOffset": 0,
      "componentType": 5126,
      "count": 2890,
      "type": "VEC3",
      "min": [
        0,
        -0.90161288,
        -84
      ],
      "max": [
        401,
        4.1478,
        0
      ]
    },
    {
      "bufferView": 1,
      "byteOffset": 12,
      "componentType": 5126,
      "count": 2890,
      "type": "VEC3"
    },
    {
      "bufferView": 1,
      "byteOffset": 24,
      "componentType": 5126,
      "count": 2890,
      "type": "VEC2",
      "min": [
        0,
        0
      ],
      "max": [
        1,
        0
      ]
    }
  ],
  "asset": {
    "version": "2.0",
    "generator": "GLVis"
  }
}